<svg xmlns="http://www.w3.org/2000/svg" viewBox="0 0 400 300">
  <defs>
    <linearGradient id="teeGrad" x1="0" y1="0" x2="0" y2="1">
      <stop offset="0%" stop-color="#1e3a8a"/>
      <stop offset="100%" stop-color="#3b82f6"/>
    </linearGradient>
  </defs>
  <rect width="100%" height="100%" fill="#0b1020"/>
  <g transform="translate(80,40)">
    <!-- Tee body -->
    <path d="M120 20c-16 0-28-12-36-20C74 6 64 16 52 24c-12 8-28 12-44 12v48c9 0 20-3 28-10v146c0 14 10 24 24 24h120c14 0 24-10 24-24V74c8 7 19 10 28 10V36c-16 0-32-4-44-12-12-8-22-18-32-24-8 8-20 20-36 20z" fill="url(#teeGrad)"/>
    <!-- Neckline -->
    <path d="M120 44c18 0 30-10 36-20 0 0-18-10-36-10s-36 10-36 10c6 10 18 20 36 20z" fill="#0b1020" opacity=".35"/>
    <!-- Sleeve seams -->
    <path d="M8 60c10-2 20-6 28-12M204 48c8 6 18 10 28 12" stroke="#0b1020" stroke-width="4" stroke-linecap="round" opacity=".4"/>
  </g>
</svg>

